<svg xmlns="http://www.w3.org/2000/svg" viewBox="0 0 128 128">
  <rect width="128" height="128" rx="24" fill="#1a1a2e"/>
  <g fill="#bb86fc" transform="translate(64,68)">
    <!-- Knight head -->
    <path d="M-8,-48 C-12,-44 -16,-36 -18,-28 L-22,-20 C-26,-12 -28,-4 -26,4
             L-24,10 C-22,16 -18,20 -14,22 L-10,26 L10,26 L14,22
             C18,20 22,16 24,10 L26,4 C28,-4 26,-12 22,-20 L18,-28
             C16,-36 12,-44 8,-48 C4,-50 0,-50 -4,-48 Z" />
    <!-- Knight eye -->
    <ellipse cx="-6" cy="-22" rx="4" ry="5" fill="#1a1a2e"/>
    <!-- Knight mouth/snout -->
    <path d="M-18,-8 C-22,-4 -22,4 -18,8 C-14,12 -10,10 -8,6 C-6,2 -10,-4 -14,-6
             C-16,-7 -18,-8 -18,-8 Z" fill="#1a1a2e"/>
    <!-- Mane -->
    <path d="M-6,-46 C-4,-42 0,-40 4,-42 C8,-44 10,-48 12,-44
             C14,-40 16,-36 14,-32 C12,-28 8,-28 6,-32
             C4,-36 2,-40 -2,-42 C-4,-44 -6,-46 -6,-46 Z" fill="#9c6fce"/>
    <!-- Base -->
    <rect x="-14" y="26" width="28" height="4" rx="2" fill="#9c6fce"/>
    <rect x="-18" y="30" width="36" height="4" rx="2" fill="#bb86fc"/>
  </g>
</svg>
